<svg width="530" height="650" xmlns="http://www.w3.org/2000/svg">
 <g id="Layer_1">
  <title>Layer 1</title>
  <g stroke="null" id="svg_40">
   <line stroke="#000" stroke-width="4" stroke-linecap="undefined" stroke-linejoin="undefined" id="svg_2" y2="273.86546" x2="55.73304" y1="69.92987" x1="175.12396" fill="none"/>
   <line stroke="#000" stroke-linecap="undefined" stroke-linejoin="undefined" id="svg_3" y2="272.77781" x2="324.63152" y1="67.21073" x1="216.53433" stroke-width="4" fill="none"/>
   <line stroke="#000" stroke-linecap="undefined" stroke-linejoin="undefined" id="svg_4" y2="203.1678" x2="137.47817" y1="143.89052" x1="171.89717" stroke-width="4" fill="none"/>
   <line stroke="#000" stroke-linecap="undefined" stroke-linejoin="undefined" id="svg_5" y2="203.71163" x2="256.8691" y1="140.08372" x1="218.14773" stroke-width="4" fill="none"/>
   <line stroke="#000" stroke-linecap="undefined" stroke-linejoin="undefined" id="svg_6" y2="280.39141" x2="148.23411" y1="268.42719" x1="140.16716" stroke-width="4" fill="none"/>
   <line stroke="#000" stroke-linecap="undefined" stroke-linejoin="undefined" id="svg_7" y2="278.2161" x2="233.74383" y1="267.88336" x1="241.81079" stroke-width="4" fill="none"/>
   <line stroke="#000" stroke-linecap="undefined" stroke-linejoin="undefined" id="svg_8" y2="100.92808" x2="344.53001" y1="54.70267" x1="226.21468" stroke-width="4" fill="none"/>
   <line stroke="#000" stroke-linecap="undefined" stroke-linejoin="undefined" id="svg_9" y2="273.86547" x2="469.83668" y1="135.18926" x1="399.92308" stroke-width="4" fill="none"/>
   <line stroke="#000" stroke-linecap="undefined" stroke-linejoin="undefined" id="svg_10" y2="488.4601" x2="218.68552" y1="420.48157" x1="266.54946" stroke-width="4" fill="none"/>
   <line stroke="#000" stroke-linecap="undefined" stroke-linejoin="undefined" id="svg_11" y2="484.6533" x2="170.82158" y1="425.37602" x1="126.72223" stroke-width="4" fill="none"/>
   <line stroke="#000" stroke-linecap="undefined" stroke-linejoin="undefined" id="svg_12" y2="361.74811" x2="145.54513" y1="357.94132" x1="148.7719" stroke-width="4" fill="none"/>
   <line stroke="#000" stroke-linecap="undefined" stroke-linejoin="undefined" id="svg_13" y2="363.92342" x2="235.35723" y1="357.39748" x1="232.13045" stroke-width="4" fill="none"/>
   <line stroke="#000" stroke-linecap="undefined" stroke-linejoin="undefined" id="svg_14" y2="563.29089" x2="169.20819" y1="358.26762" x1="58.95981" stroke-width="4" fill="none"/>
   <line stroke="#000" stroke-linecap="undefined" stroke-linejoin="undefined" id="svg_15" y2="563.83471" x2="220.29891" y1="358.26762" x1="326.78271" stroke-width="4" fill="none"/>
   <ellipse stroke="#000" ry="33.17353" rx="31.99892" id="svg_16" cy="43.17351" cx="195.50648" stroke-width="4" fill="none"/>
   <ellipse stroke="#000" ry="33.17353" rx="31.99892" id="svg_17" cy="117.13415" cx="372.44169" stroke-width="4" fill="none"/>
   <ellipse stroke="#000" ry="33.17353" rx="31.99892" id="svg_18" cy="119.8533" cx="193.89309" stroke-width="4" fill="none"/>
   <ellipse stroke="#000" ry="33.17353" rx="31.99892" id="svg_19" cy="197.62074" cx="194.43089" stroke-width="4" fill="none"/>
   <ellipse stroke="#000" ry="33.17353" rx="31.99892" id="svg_21" cy="237.3202" cx="254.12636" stroke-width="4" fill="none"/>
   <ellipse stroke="#000" ry="33.17353" rx="31.99892" id="svg_22" cy="393.39892" cx="135.81102" stroke-width="4" fill="none"/>
   <ellipse stroke="#000" ry="33.17353" rx="31.99892" id="svg_23" cy="390.67978" cx="251.97517" stroke-width="4" fill="none"/>
   <ellipse stroke="#000" ry="33.17353" rx="31.99892" id="svg_24" cy="431.4669" cx="194.96869" stroke-width="4" fill="none"/>
   <ellipse stroke="#000" ry="33.17353" rx="31.99892" id="svg_25" cy="508.69052" cx="193.3553" stroke-width="4" fill="none"/>
   <ellipse stroke="#000" ry="33.17353" rx="31.99892" id="svg_26" cy="584.82647" cx="194.43089" stroke-width="4" fill="none"/>
   <ellipse stroke="#000" ry="33.17353" rx="31.99892" id="svg_20" cy="236.77638" cx="135.81102" stroke-width="4" fill="none"/>
   <line stroke="#000" stroke-linecap="undefined" stroke-linejoin="undefined" id="svg_28" y2="274.30053" x2="95.74514" y1="256.89802" x1="109.72786" stroke-width="4" fill="none"/>
   <line stroke="#000" id="svg_29" y2="274.30053" x2="296.34342" y1="254.17888" x1="281.8229" stroke-width="4" fill="none"/>
   <line stroke="#000" stroke-linecap="undefined" stroke-linejoin="undefined" id="svg_30" y2="375.6701" x2="108.11447" y1="359.35525" x1="94.66955" stroke-width="4" fill="none"/>
   <line stroke="#000" id="svg_31" y2="359.89908" x2="298.49461" y1="378.93307" x1="282.89849" stroke-width="4" fill="none"/>
   <rect stroke="#000" rx="12" id="svg_32" height="84.83721" width="86.04752" y="273.7567" x="14" stroke-width="4" fill="none"/>
   <rect stroke="#000" id="svg_33" height="0" width="10.21814" y="330.85867" x="73.15767" stroke-width="4" fill="none"/>
   <rect stroke="#000" rx="12" id="svg_34" height="84.83721" width="86.04752" y="274.30053" x="147.37365" stroke-width="4" fill="none"/>
   <rect stroke="#000" rx="12" id="svg_35" height="84.83721" width="86.04752" y="274.30053" x="291.50325" stroke-width="4" fill="none"/>
   <rect stroke="#000" rx="12" id="svg_36" height="84.83721" width="86.04752" y="274.30053" x="425.95249" stroke-width="4" fill="none"/>
   <text stroke="#000" fill="#000000" stroke-width="0" x="66.21591" y="-319.00585" id="svg_1" font-size="50" font-family="'Roboto Mono'" text-anchor="start" xml:space="preserve" font-weight="bold" transform="matrix(0.723885 0 0 0.448795 -6.2735 495.282)">A</text>
   <text stroke="#000" fill="#000000" stroke-width="0" x="256.24956" y="-316.4548" id="svg_27" font-size="50" font-family="'Roboto Mono'" text-anchor="start" xml:space="preserve" font-weight="bold" transform="matrix(0.723885 0 0 0.448795 -6.2735 495.282)">B</text>
   <text stroke="#000" fill="#000000" stroke-width="0" x="453.32148" y="-312.62822" id="svg_37" font-size="50" font-family="'Roboto Mono'" text-anchor="start" xml:space="preserve" font-weight="bold" transform="matrix(0.723885 0 0 0.448795 -6.2735 495.282)">C</text>
   <text stroke="#000" fill="#000000" stroke-width="0" x="642.57308" y="-315.17927" id="svg_38" font-size="50" font-family="'Roboto Mono'" text-anchor="start" xml:space="preserve" font-weight="bold" transform="matrix(0.723885 0 0 0.448795 -6.2735 495.282)">D</text>
   <text stroke="#000" transform="matrix(0.537797 0 0 0.543828 4.92441 439.234)" fill="#000000" stroke-width="0" x="308.19007" y="-707.2307" id="svg_39" font-size="50" font-family="'Roboto Mono'" text-anchor="start" xml:space="preserve">TOP</text>
   <text stroke="#000" transform="matrix(0.537797 0 0 0.543828 4.92441 439.234)" fill="#000000" stroke-width="0" x="319.769" y="-567.23093" id="svg_41" font-size="50" font-family="'Roboto Mono'" text-anchor="start" xml:space="preserve">P0</text>
   <text stroke="#000" transform="matrix(0.537797 0 0 0.543828 4.92441 439.234)" fill="#000000" stroke-width="0" x="210.29549" y="-350.38918" id="svg_42" font-size="50" font-family="'Roboto Mono'" text-anchor="start" xml:space="preserve">P1</text>
   <text stroke="#000" transform="matrix(0.537797 0 0 0.543828 4.92441 439.234)" fill="#000000" stroke-width="0" x="319.769" y="-421.968" id="svg_43" font-size="50" font-family="'Roboto Mono'" text-anchor="start" xml:space="preserve">P3</text>
   <text stroke="#000" transform="matrix(0.537797 0 0 0.543828 4.92441 439.234)" fill="#000000" stroke-width="0" x="433.45303" y="-351.44181" id="svg_44" font-size="50" font-family="'Roboto Mono'" text-anchor="start" xml:space="preserve">P2</text>
   <text stroke="#000" transform="matrix(0.537797 0 0 0.543828 4.92441 439.234)" fill="#000000" stroke-width="0" x="654.5053" y="-577.75723" id="svg_45" font-size="50" font-family="'Roboto Mono'" text-anchor="start" xml:space="preserve">Pd</text>
   <text stroke="#000" transform="matrix(0.537797 0 0 0.543828 4.92441 439.234)" fill="#000000" stroke-width="0" x="58.71679" y="-217.75782" id="svg_46" font-size="50" font-family="'Roboto Mono'" text-anchor="start" xml:space="preserve">Pa</text>
   <text stroke="#000" transform="matrix(0.537797 0 0 0.543828 4.92441 439.234)" fill="#000000" stroke-width="0" x="313.45322" y="-219.86308" id="svg_47" font-size="50" font-family="'Roboto Mono'" text-anchor="start" xml:space="preserve">Pb</text>
   <text stroke="#000" transform="matrix(0.537797 0 0 0.543828 4.92441 439.234)" fill="#000000" stroke-width="0" x="579.76861" y="-218.81045" id="svg_48" font-size="50" font-family="'Roboto Mono'" text-anchor="start" xml:space="preserve">Pc</text>
   <text stroke="#000" transform="matrix(0.537797 0 0 0.543828 4.92441 439.234)" fill="#000000" stroke-width="0" x="839.76818" y="-217.75782" id="svg_49" font-size="50" font-family="'Roboto Mono'" text-anchor="start" xml:space="preserve">Pd</text>
   <text stroke="#000" transform="matrix(0.537797 0 0 0.543828 4.92441 439.234)" fill="#000000" stroke-width="0" x="211.34812" y="-63.02121" id="svg_50" font-size="50" font-family="'Roboto Mono'" text-anchor="start" xml:space="preserve">N0</text>
   <text stroke="#000" transform="matrix(0.537797 0 0 0.543828 4.92441 439.234)" fill="#000000" stroke-width="0" x="322.92689" y="1.18921" id="svg_51" font-size="50" font-family="'Roboto Mono'" text-anchor="start" xml:space="preserve">N2</text>
   <text stroke="#000" transform="matrix(0.537797 0 0 0.543828 4.92441 439.234)" fill="#000000" stroke-width="0" x="432.4004" y="-75.65277" id="svg_52" font-size="50" font-family="'Roboto Mono'" text-anchor="start" xml:space="preserve">N1</text>
   <text stroke="#000" transform="matrix(0.537797 0 0 0.543828 4.92441 439.234)" fill="#000000" stroke-width="0" x="321.87426" y="152.76791" id="svg_53" font-size="50" font-family="'Roboto Mono'" text-anchor="start" xml:space="preserve">N3</text>
   <text stroke="#000" transform="matrix(0.537797 0 0 0.543828 4.92441 439.234)" fill="#000000" stroke-width="0" x="321.87426" y="292.7677" id="svg_54" font-size="50" font-family="'Roboto Mono'" text-anchor="start" xml:space="preserve">BO</text>
  </g>
 </g>

</svg>