<svg width="450" height="560" xmlns="http://www.w3.org/2000/svg">
 <g id="Layer_1">
  <title>Layer 1</title>
  <g stroke="null" id="svg_40">
   <line stroke="#000" stroke-width="4" stroke-linecap="undefined" stroke-linejoin="undefined" id="svg_2" y2="243.48621" x2="44.20215" y1="63.03004" x1="147.77019" fill="none"/>
   <line stroke="#000" stroke-linecap="undefined" stroke-linejoin="undefined" id="svg_3" y2="242.52378" x2="277.4635" y1="60.62396" x1="183.69244" stroke-width="4" fill="none"/>
   <line stroke="#000" stroke-linecap="undefined" stroke-linejoin="undefined" id="svg_4" y2="180.92808" x2="115.11359" y1="128.47548" x1="144.97105" stroke-width="4" fill="none"/>
   <line stroke="#000" stroke-linecap="undefined" stroke-linejoin="undefined" id="svg_5" y2="181.40929" x2="218.68164" y1="125.10696" x1="185.09201" stroke-width="4" fill="none"/>
   <line stroke="#000" stroke-linecap="undefined" stroke-linejoin="undefined" id="svg_6" y2="249.26081" x2="124.44405" y1="238.67405" x1="117.44621" stroke-width="4" fill="none"/>
   <line stroke="#000" stroke-linecap="undefined" stroke-linejoin="undefined" id="svg_7" y2="247.33595" x2="198.62116" y1="238.19283" x1="205.619" stroke-width="4" fill="none"/>
   <line stroke="#000" stroke-linecap="undefined" stroke-linejoin="undefined" id="svg_8" y2="90.45937" x2="294.72484" y1="49.55597" x1="192.08985" stroke-width="4" fill="none"/>
   <line stroke="#000" stroke-linecap="undefined" stroke-linejoin="undefined" id="svg_9" y2="243.48621" x2="403.42461" y1="120.77601" x1="342.77666" stroke-width="4" fill="none"/>
   <line stroke="#000" stroke-linecap="undefined" stroke-linejoin="undefined" id="svg_10" y2="433.37423" x2="185.55853" y1="373.22217" x1="227.07905" stroke-width="4" fill="none"/>
   <line stroke="#000" stroke-linecap="undefined" stroke-linejoin="undefined" id="svg_11" y2="430.00571" x2="144.038" y1="377.55312" x1="105.78314" stroke-width="4" fill="none"/>
   <line stroke="#000" stroke-linecap="undefined" stroke-linejoin="undefined" id="svg_12" y2="321.25079" x2="122.11144" y1="317.88228" x1="124.91057" stroke-width="4" fill="none"/>
   <line stroke="#000" stroke-linecap="undefined" stroke-linejoin="undefined" id="svg_13" y2="323.17565" x2="200.02074" y1="317.40106" x1="197.2216" stroke-width="4" fill="none"/>
   <line stroke="#000" stroke-linecap="undefined" stroke-linejoin="undefined" id="svg_14" y2="499.58964" x2="142.63844" y1="318.17102" x1="47.00128" stroke-width="4" fill="none"/>
   <line stroke="#000" stroke-linecap="undefined" stroke-linejoin="undefined" id="svg_15" y2="500.07085" x2="186.9581" y1="318.17102" x1="279.32959" stroke-width="4" fill="none"/>
   <ellipse stroke="#000" ry="29.35421" rx="27.7581" id="svg_16" cy="39.35418" cx="165.45141" stroke-width="4" fill="none"/>
   <ellipse stroke="#000" ry="29.35421" rx="27.7581" id="svg_17" cy="104.79962" cx="318.93738" stroke-width="4" fill="none"/>
   <ellipse stroke="#000" ry="29.35421" rx="27.7581" id="svg_18" cy="107.2057" cx="164.05184" stroke-width="4" fill="none"/>
   <ellipse stroke="#000" ry="29.35421" rx="27.7581" id="svg_19" cy="176.01966" cx="164.51837" stroke-width="4" fill="none"/>
   <ellipse stroke="#000" ry="29.35421" rx="27.7581" id="svg_21" cy="211.14846" cx="216.30239" stroke-width="4" fill="none"/>
   <ellipse stroke="#000" ry="29.35421" rx="27.7581" id="svg_22" cy="349.25759" cx="113.66739" stroke-width="4" fill="none"/>
   <ellipse stroke="#000" ry="29.35421" rx="27.7581" id="svg_23" cy="346.85151" cx="214.4363" stroke-width="4" fill="none"/>
   <ellipse stroke="#000" ry="29.35421" rx="27.7581" id="svg_24" cy="382.94275" cx="164.98489" stroke-width="4" fill="none"/>
   <ellipse stroke="#000" ry="29.35421" rx="27.7581" id="svg_25" cy="451.27549" cx="163.58532" stroke-width="4" fill="none"/>
   <ellipse stroke="#000" ry="29.35421" rx="27.7581" id="svg_26" cy="518.64579" cx="164.51837" stroke-width="4" fill="none"/>
   <ellipse stroke="#000" ry="29.35421" rx="27.7581" id="svg_20" cy="210.66725" cx="113.66739" stroke-width="4" fill="none"/>
   <line stroke="#000" stroke-linecap="undefined" stroke-linejoin="undefined" id="svg_28" y2="243.87118" x2="78.91145" y1="228.47225" x1="91.04104" stroke-width="4" fill="none"/>
   <line stroke="#000" id="svg_29" y2="243.87118" x2="252.92442" y1="226.06617" x1="240.32831" stroke-width="4" fill="none"/>
   <line stroke="#000" stroke-linecap="undefined" stroke-linejoin="undefined" id="svg_30" y2="333.56992" x2="89.64147" y1="319.13342" x1="77.97841" stroke-width="4" fill="none"/>
   <line stroke="#000" id="svg_31" y2="319.61464" x2="254.79051" y1="336.45721" x1="241.26135" stroke-width="4" fill="none"/>
   <rect stroke="#000" rx="12" id="svg_32" height="75.06977" width="74.64363" y="243.38997" x="8" stroke-width="4" fill="none"/>
   <rect stroke="#000" id="svg_33" height="0" width="8.86393" y="293.9177" x="59.3175" stroke-width="4" fill="none"/>
   <rect stroke="#000" rx="12" id="svg_34" height="75.06977" width="74.64363" y="243.87118" x="123.69763" stroke-width="4" fill="none"/>
   <rect stroke="#000" rx="12" id="svg_35" height="75.06977" width="74.64363" y="243.87118" x="248.72572" stroke-width="4" fill="none"/>
   <rect stroke="#000" rx="12" id="svg_36" height="75.06977" width="74.64363" y="243.87118" x="365.35639" stroke-width="4" fill="none"/>
   <text stroke="#000" fill="#000000" stroke-width="0" x="56.66099" y="-495.27283" id="svg_1" font-size="50" font-family="'Roboto Mono'" text-anchor="start" xml:space="preserve" font-weight="bold" transform="matrix(0.627949 0 0 0.397125 -3.58665 509.411)">A</text>
   <text stroke="#000" fill="#000000" stroke-width="0" x="246.69464" y="-492.72178" id="svg_27" font-size="50" font-family="'Roboto Mono'" text-anchor="start" xml:space="preserve" font-weight="bold" transform="matrix(0.627949 0 0 0.397125 -3.58665 509.411)">B</text>
   <text stroke="#000" fill="#000000" stroke-width="0" x="443.76656" y="-488.8952" id="svg_37" font-size="50" font-family="'Roboto Mono'" text-anchor="start" xml:space="preserve" font-weight="bold" transform="matrix(0.627949 0 0 0.397125 -3.58665 509.411)">C</text>
   <text stroke="#000" fill="#000000" stroke-width="0" x="633.01816" y="-491.44625" id="svg_38" font-size="50" font-family="'Roboto Mono'" text-anchor="start" xml:space="preserve" font-weight="bold" transform="matrix(0.627949 0 0 0.397125 -3.58665 509.411)">D</text>
   <text stroke="#000" transform="matrix(0.466523 0 0 0.481216 0.127195 389.816)" fill="#000000" stroke-width="0" x="308.19007" y="-707.2307" id="svg_39" font-size="50" font-family="'Roboto Mono'" text-anchor="start" xml:space="preserve">TOP</text>
   <text stroke="#000" transform="matrix(0.466523 0 0 0.481216 0.127195 389.816)" fill="#000000" stroke-width="0" x="319.769" y="-567.23093" id="svg_41" font-size="50" font-family="'Roboto Mono'" text-anchor="start" xml:space="preserve">P0</text>
   <text stroke="#000" transform="matrix(0.466523 0 0 0.481216 0.127195 389.816)" fill="#000000" stroke-width="0" x="210.29549" y="-350.38918" id="svg_42" font-size="50" font-family="'Roboto Mono'" text-anchor="start" xml:space="preserve">P1</text>
   <text stroke="#000" transform="matrix(0.466523 0 0 0.481216 0.127195 389.816)" fill="#000000" stroke-width="0" x="319.769" y="-421.968" id="svg_43" font-size="50" font-family="'Roboto Mono'" text-anchor="start" xml:space="preserve">P3</text>
   <text stroke="#000" transform="matrix(0.466523 0 0 0.481216 0.127195 389.816)" fill="#000000" stroke-width="0" x="433.45303" y="-351.44181" id="svg_44" font-size="50" font-family="'Roboto Mono'" text-anchor="start" xml:space="preserve">P2</text>
   <text stroke="#000" transform="matrix(0.466523 0 0 0.481216 0.127195 389.816)" fill="#000000" stroke-width="0" x="654.5053" y="-577.75723" id="svg_45" font-size="50" font-family="'Roboto Mono'" text-anchor="start" xml:space="preserve">Pd</text>
   <text stroke="#000" transform="matrix(0.466523 0 0 0.481216 0.127195 389.816)" fill="#000000" stroke-width="0" x="58.71679" y="-217.75782" id="svg_46" font-size="50" font-family="'Roboto Mono'" text-anchor="start" xml:space="preserve">Pa</text>
   <text stroke="#000" transform="matrix(0.466523 0 0 0.481216 0.127195 389.816)" fill="#000000" stroke-width="0" x="313.45322" y="-219.86308" id="svg_47" font-size="50" font-family="'Roboto Mono'" text-anchor="start" xml:space="preserve">Pb</text>
   <text stroke="#000" transform="matrix(0.466523 0 0 0.481216 0.127195 389.816)" fill="#000000" stroke-width="0" x="579.76861" y="-218.81045" id="svg_48" font-size="50" font-family="'Roboto Mono'" text-anchor="start" xml:space="preserve">Pc</text>
   <text stroke="#000" transform="matrix(0.466523 0 0 0.481216 0.127195 389.816)" fill="#000000" stroke-width="0" x="839.76818" y="-217.75782" id="svg_49" font-size="50" font-family="'Roboto Mono'" text-anchor="start" xml:space="preserve">Pd</text>
   <text stroke="#000" transform="matrix(0.466523 0 0 0.481216 0.127195 389.816)" fill="#000000" stroke-width="0" x="211.34812" y="-63.02121" id="svg_50" font-size="50" font-family="'Roboto Mono'" text-anchor="start" xml:space="preserve">N0</text>
   <text stroke="#000" transform="matrix(0.466523 0 0 0.481216 0.127195 389.816)" fill="#000000" stroke-width="0" x="322.92689" y="1.18921" id="svg_51" font-size="50" font-family="'Roboto Mono'" text-anchor="start" xml:space="preserve">N2</text>
   <text stroke="#000" transform="matrix(0.466523 0 0 0.481216 0.127195 389.816)" fill="#000000" stroke-width="0" x="432.4004" y="-75.65277" id="svg_52" font-size="50" font-family="'Roboto Mono'" text-anchor="start" xml:space="preserve">N1</text>
   <text stroke="#000" transform="matrix(0.466523 0 0 0.481216 0.127195 389.816)" fill="#000000" stroke-width="0" x="321.87426" y="152.76791" id="svg_53" font-size="50" font-family="'Roboto Mono'" text-anchor="start" xml:space="preserve">N3</text>
   <text stroke="#000" transform="matrix(0.466523 0 0 0.481216 0.127195 389.816)" fill="#000000" stroke-width="0" x="321.87426" y="292.7677" id="svg_54" font-size="50" font-family="'Roboto Mono'" text-anchor="start" xml:space="preserve">BO</text>
  </g>
 </g>

</svg>