<svg width="350" height="249.99999999999997" xmlns="http://www.w3.org/2000/svg">
 <g id="Layer_1">
  <title>Layer 1</title>
  <g id="svg_35">
   <ellipse stroke="#000" fill="#fff" cx="50.87268" cy="94.02158" id="svg_2" rx="25.95155" ry="30.40867"/>
   <ellipse stroke="#000" fill="#fff" cx="299.28542" cy="96.45763" id="svg_6" rx="25.95155" ry="30.40867"/>
   <ellipse stroke="#000" fill="#fff" cx="172.82121" cy="52.39363" id="svg_7" rx="25.95155" ry="30.40867"/>
   <line stroke="#000" fill="none" x1="148.0767" y1="45.83789" x2="74.03997" y2="82.21729" id="svg_8"/>
   <line stroke="#000" fill="none" x1="197.40434" y1="43.56642" x2="276.42742" y2="80.6849" id="svg_9"/>
   <line stroke="#000" fill="none" x1="79.17265" y1="168.72236" x2="150.00794" y2="66.8162" id="svg_10"/>
   <line stroke="#000" fill="none" x1="196.95039" y1="65.14465" x2="269.50919" y2="169.6618" id="svg_11"/>
   <text stroke="#000" fill="#000000" x="103.20422" y="119.78951" id="svg_17" stroke-width="0" font-size="24" font-family="'Roboto Mono'" text-anchor="start" xml:space="preserve" transform="matrix(1.18681 0 0 1.45684 -86.8623 -69.2007)" font-weight="normal">MU</text>
   <text stroke="#000" fill="#000000" x="203.21784" y="90.64246" id="svg_21" stroke-width="0" font-size="24" font-family="'Roboto Mono'" text-anchor="start" xml:space="preserve" transform="matrix(1.18681 0 0 1.45684 -86.8623 -69.2007)">P2</text>
   <text stroke="#000" fill="#000000" x="311.31574" y="121.00277" id="svg_20" stroke-width="0" font-size="24" font-family="'Roboto Mono'" text-anchor="start" xml:space="preserve" transform="matrix(1.18681 0 0 1.45684 -86.8623 -69.2007)">P2</text>
   <rect stroke="#000" id="svg_19" height="59.25005" width="73.52022" y="169.12175" x="30.7668" fill="#fff"/>
   <rect stroke="#000" id="svg_22" height="59.25005" width="73.52022" y="169.50401" x="244.74357" fill="#fff"/>
   <line stroke="#000" id="svg_23" y2="168.35724" x2="65.51516" y1="124.39752" x1="53.44468" fill="none"/>
   <line stroke="#000" id="svg_24" y2="168.7395" x2="282.41811" y1="125.92656" x1="295.58591" fill="none"/>
   <line stroke="#000" id="svg_26" y2="201.99598" x2="245.10934" y1="199.70243" x1="104.65279" fill="none"/>
   <text stroke="#000" transform="matrix(1.57282 0 0 1.64371 -78.8734 -81.6616)" xml:space="preserve" text-anchor="start" font-family="'Roboto Mono'" font-size="17" stroke-width="0" id="svg_27" y="185.36203" x="103.89528" fill="#000000">A</text>
   <text stroke="#000" transform="matrix(1.57282 0 0 1.64371 -77.0877 -80.7687)" xml:space="preserve" text-anchor="start" font-family="'Roboto Mono'" font-size="17" stroke-width="0" id="svg_28" y="184.97331" x="239.78788" fill="#000000">B</text>
   <text stroke="#000" transform="matrix(1.57282 0 0 1.64371 -78.8734 -81.6616)" xml:space="preserve" text-anchor="start" font-family="'Roboto Mono'" font-size="17" stroke-width="0" id="svg_29" y="132.80391" x="97.38365" fill="#000000">D</text>
   <text stroke="#000" transform="matrix(1.57282 0 0 1.64371 -78.8734 -81.6616)" xml:space="preserve" text-anchor="start" font-family="'Roboto Mono'" font-size="17" stroke-width="0" id="svg_30" y="118.38531" x="154.12781" fill="#000000">C</text>
   <text stroke="#000" transform="matrix(1.57282 0 0 1.64371 -78.8734 -81.6616)" xml:space="preserve" text-anchor="start" font-family="'Roboto Mono'" font-size="17" stroke-width="0" id="svg_31" y="129.5481" x="210.63941" fill="#000000">E</text>
   <text stroke="#000" transform="matrix(1.57282 0 0 1.64371 -78.8734 -81.6616)" xml:space="preserve" text-anchor="start" font-family="'Roboto Mono'" font-size="24" stroke-width="0" id="svg_33" y="178.30048" x="80.33659" fill="#000000">A1</text>
   <text stroke="#000" transform="matrix(1.57282 0 0 1.64371 -77.0877 -80.7687)" xml:space="preserve" text-anchor="start" font-family="'Roboto Mono'" font-size="24" stroke-width="0" id="svg_34" y="177.91176" x="215.37768" fill="#000000">B1</text>
  </g>
 </g>

</svg>